pedal_clip_forces.mot
version=1
nRows=120
nColumns=4
inDegrees=yes
endheader
time	PedalClip_calcn_r_Fx	PedalClip_calcn_r_Fy	PedalClip_calcn_r_Fz
0.37235617	-2.80165773311286	-255.295125771517	-0
0.37308376	-3.44014740930861	-253.343011840988	-0
0.37381136	-4.06202436365713	-251.448165312337	-0
0.37471388	-4.66804164457913	-249.60839481857	-0
0.37561641	-5.25850226338751	-247.823582103618	-0
0.37651894	-5.83353411543588	-246.092421451064	-0
0.3772559	-6.39335082626218	-244.413961280771	-0
0.37799286	-6.93858003906823	-242.783865892814	-0
0.37890161	-7.47058933027167	-241.197666057407	-0
0.37981036	-7.9912184739249	-239.648210197587	-0
0.38044253	-8.50229227552415	-238.130474436451	-0
0.3810747	-9.00604971691714	-236.637180920515	-0
0.38189993	-9.50327210480157	-235.165479442147	-0
0.38272517	-9.99517391500956	-233.713135517767	-0
0.3835504	-10.4823262866128	-232.281029448604	-0
0.38416805	-10.9652343681683	-230.868367264641	-0
0.3847857	-11.4446001730511	-229.474292415412	-0
0.38562525	-11.9199972517821	-228.099844862819	-0
0.3864648	-12.391051981482	-226.746277867383	-0
0.38730436	-12.8570748104677	-225.415585177249	-0
0.38807205	-13.317771789899	-224.108534110421	-0
0.38883974	-13.7726725830144	-222.826066475418	-0
0.38960743	-14.2212133728627	-221.569319331817	-0
0.39037512	-14.6631583480009	-220.338581594226	-0
0.39114281	-15.0984076558193	-219.134416574587	-0
0.39191049	-15.5267510006992	-217.957946214268	-0
0.39267818	-15.9478074307049	-216.810492177772	-0
0.39344587	-16.3611157019366	-215.693158622256	-0
0.39421356	-16.7662528573628	-214.607161552047	-0
0.39498125	-17.1629001706896	-213.553429114495	-0
0.39574894	-17.5508749749124	-212.532311574511	-0
0.39651663	-17.9300198041652	-211.543848444951	-0
0.39728432	-18.3001099308606	-210.587843595115	-0
0.39805201	-18.6611448843376	-209.663303051836	-0
0.3988197	-19.0133153886297	-208.768422262224	-0
0.39937355	-19.3571639282227	-207.900675679238	-0
0.3999274	-19.693437143387	-207.057020318976	-0
0.40061353	-20.0228631913449	-206.235155295641	-0
0.40129966	-20.3460341996668	-205.433439504484	-0
0.40198578	-20.6636722079823	-204.649399993217	-0
0.40253473	-20.9763305186198	-203.881288627991	-0
0.40308368	-21.2847085611788	-203.126736135963	-0
0.40378522	-21.5893991025853	-202.383755395187	-0
0.40448677	-21.8912189154923	-201.649576029522	-0
0.40510712	-22.1915243664522	-200.919836163301	-0
0.40572747	-22.4913221915626	-200.191815249531	-0
0.40626532	-22.7910751392688	-199.464833894921	-0
0.40680317	-23.091034213415	-198.738939391981	-0
0.40747927	-23.3913244747073	-198.014656664171	-0
0.40815537	-23.6918808624992	-197.293204464917	-0
0.40868317	-23.992531364104	-196.575862022662	-0
0.40921096	-24.2929420042415	-195.864072140421	-0
0.40986562	-24.5925615362301	-195.159658782685	-0
0.41052029	-24.8907669251534	-194.464258674835	-0
0.41117495	-25.1871636856515	-193.778395576443	-0
0.41182961	-25.4815694508508	-193.10176748476	-0
0.41248428	-25.7738487468967	-192.434055945636	-0
0.41313894	-26.0640584855128	-191.77493165705	-0
0.41379361	-26.3521685327244	-191.124621470778	-0
0.41444827	-26.6381943211696	-190.483294982412	-0
0.41510293	-26.9220673911225	-189.851469512192	-0
0.4157576	-27.2034623870919	-189.230281390809	-0
0.41641226	-27.4820109676171	-188.620645120512	-0
0.41706692	-27.7574900972707	-188.022974965479	-0
0.41772159	-28.0297252038146	-187.437618179924	-0
0.41830236	-28.2986383854414	-186.864434055512	-0
0.41888314	-28.564188075097	-186.302814854301	-0
0.41946392	-28.8264779905145	-185.752095267901	-0
0.4200447	-29.0856581890208	-185.211801340861	-0
0.42054689	-29.3418846819335	-184.681427440386	-0
0.42104909	-29.5954808486777	-184.159913784161	-0
0.42166639	-29.8468035621133	-183.645985311046	-0
0.42228369	-30.0962913620098	-183.13826778168	-0
0.42290099	-30.3443103062615	-182.635847699324	-0
0.4235183	-30.591229218569	-182.137843191002	-0
0.4241356	-30.8374574512664	-181.643021843247	-0
0.4247529	-31.0834785678857	-181.149636507023	-0
0.4253702	-31.3294515405989	-180.656934017257	-0
0.4259875	-31.5751928801528	-180.165257430548	-0
0.42647265	-31.8204740262217	-179.675380440716	-0
0.42695781	-32.0649617942175	-179.188461599887	-0
0.42759015	-32.3084048657137	-178.705804790439	-0
0.4282225	-32.5505733099599	-178.228705104119	-0
0.42885485	-32.7912186770063	-177.758160467322	-0
0.42948947	-33.0302011699799	-177.295023241231	-0
0.43012409	-33.2674168248081	-176.840106655518	-0
0.43075871	-33.5027504082442	-176.394003068432	-0
0.43139334	-33.7361888853573	-175.956632335568	-0
0.43188672	-33.9677832364393	-175.527263688185	-0
0.43240941	-34.197551865869	-175.104711914573	-0
0.43293209	-34.4257231044795	-174.68716638725	-0
0.43353887	-34.6525595108946	-174.273125434613	-0
0.43414565	-34.8782046422403	-173.862274680569	-0
0.43475242	-35.1027032795766	-173.454942019606	-0
0.43523072	-35.3260752527239	-173.051379445357	-0
0.43570902	-35.5483946807668	-172.65121458161	-0
0.43631905	-35.7697371112111	-172.253446458655	-0
0.43692908	-35.9901326783651	-171.856935008619	-0
0.4375391	-36.2097063443855	-171.460607981387	-0
0.43814913	-36.4284774492718	-171.064320974558	-0
0.43875916	-36.6465253746218	-170.667768429356	-0
0.43929383	-36.8639275757981	-170.270604068677	-0
0.4398285	-37.0808832082278	-169.872277566894	-0
0.44034298	-37.2974720251575	-169.473101381984	-0
0.44085747	-37.5137430925862	-169.073610676937	-0
0.44159118	-37.7297383245532	-168.674261159019	-0
0.44211888	-37.9454315640381	-168.275304154635	-0
0.44264658	-38.1607230712208	-167.876875200661	-0
0.44324648	-38.3752100062852	-167.480028241542	-0
0.44384638	-38.5885575939224	-167.085701295843	-0
0.44444628	-38.8005456619129	-166.694645833995	-0
0.44504618	-39.011102916353	-166.30701471103	-0
0.44564608	-39.2200783131597	-165.923039328498	-0
0.44624598	-39.4274463527197	-165.542857246229	-0
0.44669732	-39.6330849191067	-165.167434794137	-0
0.44714865	-39.8369116182558	-164.797649813898	-0
0.44772573	-40.03884477356	-164.433732375454	-0
0.44830282	-40.2388917773645	-164.075638851264	-0
0.4488799	-40.4370612264127	-163.723690286817	-0
0.44945698	-40.6333616176219	-163.37865212949	-0
